# xmcd CD database file
#
# Track frame offsets:
#	182
#	30095
#	43775
#	75345
#	101020
#	112545
#	132170
#	160070
#	184332
#	240857
#	258695
#	292820
#
# Disc length: 4513 seconds
#
# Revision: 2
# Processed by: cddbd v1.5.2PL0 Copyright (c) Steve Scherf et al.
# Submitted via: CDex 1.70beta2
#
DISCID=87119f0c
DTITLE=Tom Waits - Cold Beer on a Hot Night
DYEAR=1993
DGENRE=Blues
TTITLE0=Romeo is Bleeding
TTITLE1=Annie's back in Town
TTITLE2=Jitterbug Boy/Better Off Without a Wife
TTITLE3=I Wish I was in New Orleans
TTITLE4=Since I Fell For You
TTITLE5=Red Shoes by the Drugstore
TTITLE6=Silent Night/Xmas Card from a Hooker in Minneapolis
TTITLE7=Hokey Cokey
TTITLE8=Pasties and a G String
TTITLE9=Summertime/Burma Shave
TTITLE10=Tom Traubert's Blues
TTITLE11=Small Change/Hey Big Spender
EXTD=YEAR: 1993
EXTT0=
EXTT1=
EXTT2=
EXTT3=
EXTT4=(L. Welch)
EXTT5=
EXTT6=
EXTT7=(Trad)
EXTT8=
EXTT9=
EXTT10=
EXTT11=
PLAYORDER=
